<mxfile host="app.diagrams.net" modified="2023-04-19T00:33:30.094Z" agent="Mozilla/5.0 (Macintosh; Intel Mac OS X 10_15_7) AppleWebKit/537.36 (KHTML, like Gecko) Chrome/112.0.0.0 Safari/537.36" version="21.1.8" etag="vcjjw4O622AESzYHUNJo" type="github">
  <diagram name="Page-1" id="P7Qd2amOIzd9fLEs-enl">
    <mxGraphModel>
      <root>
        <mxCell id="0" />
        <mxCell id="1" parent="0" />
      </root>
    </mxGraphModel>
  </diagram>
</mxfile>
